<svg width="142" height="40" viewBox="0 0 142 40" fill="none" xmlns="http://www.w3.org/2000/svg">
<path d="M0.554493 26L7.66044 7.77961H10.836L17.8899 26H14.376L10.4716 15.6404C10.3848 15.4322 10.2634 15.1025 10.1072 14.6513C9.96836 14.2001 9.81219 13.7143 9.63866 13.1937C9.46513 12.6557 9.30896 12.1612 9.17013 11.71C9.03131 11.2415 8.92719 10.9031 8.85778 10.6949L9.50851 10.6688C9.4044 11.0159 9.28293 11.4063 9.1441 11.8402C9.00528 12.274 8.85778 12.7251 8.70161 13.1937C8.54543 13.6622 8.38926 14.1134 8.23309 14.5472C8.09426 14.981 7.96412 15.3714 7.84265 15.7185L3.93828 26H0.554493ZM3.7821 21.8353L4.95342 18.894H13.2567L14.5061 21.8353H3.7821ZM43.3915 26V10.9031H38.1857V7.77961H52.1373V10.9031H46.7753V26H43.3915ZM62.5292 26.2603C61.2278 26.2603 60.0218 26.026 58.9112 25.5575C57.8006 25.089 56.8288 24.4383 55.9959 23.6053C55.1803 22.755 54.547 21.7573 54.0958 20.612C53.6446 19.4667 53.419 18.2173 53.419 16.8638C53.419 15.5103 53.6446 14.2609 54.0958 13.1156C54.547 11.9703 55.1803 10.9812 55.9959 10.1483C56.8288 9.29798 57.8006 8.63857 58.9112 8.17005C60.0218 7.70153 61.2278 7.46726 62.5292 7.46726C63.848 7.46726 65.0627 7.70153 66.1733 8.17005C67.2839 8.63857 68.247 9.29798 69.0625 10.1483C69.8781 10.9985 70.5115 11.9963 70.9627 13.1416C71.4138 14.2695 71.6394 15.5103 71.6394 16.8638C71.6394 18.1999 71.4138 19.4407 70.9627 20.5859C70.5115 21.7312 69.8781 22.729 69.0625 23.5793C68.247 24.4296 67.2839 25.089 66.1733 25.5575C65.0627 26.026 63.848 26.2603 62.5292 26.2603ZM62.5292 23.0327C63.3622 23.0327 64.117 22.8852 64.7938 22.5902C65.4879 22.2778 66.0865 21.844 66.5898 21.2887C67.093 20.7161 67.4834 20.0567 67.7611 19.3105C68.0561 18.5643 68.2036 17.7488 68.2036 16.8638C68.2036 15.9788 68.0561 15.1632 67.7611 14.417C67.4834 13.6709 67.093 13.0201 66.5898 12.4649C66.0865 11.8922 65.4879 11.4584 64.7938 11.1634C64.117 10.851 63.3622 10.6949 62.5292 10.6949C61.7136 10.6949 60.9588 10.851 60.2647 11.1634C59.5706 11.4584 58.9719 11.8835 58.4687 12.4388C57.9655 12.9941 57.575 13.6448 57.2974 14.391C57.0197 15.1372 56.8809 15.9614 56.8809 16.8638C56.8809 17.7488 57.0197 18.573 57.2974 19.3365C57.575 20.0827 57.9655 20.7334 58.4687 21.2887C58.9719 21.844 59.5706 22.2778 60.2647 22.5902C60.9588 22.8852 61.7136 23.0327 62.5292 23.0327Z" fill="white"/>
<path d="M27.5392 26.1562C26.0989 26.1562 24.8148 25.8525 23.6869 25.2452C22.5589 24.6205 21.6653 23.7702 21.0059 22.6943C20.3638 21.6011 20.0428 20.369 20.0428 18.9982V7.75358H23.4526V18.7639C23.4526 19.5795 23.6348 20.3083 23.9992 20.9503C24.381 21.575 24.8842 22.0783 25.5089 22.46C26.1336 22.8418 26.8104 23.0327 27.5392 23.0327C28.3374 23.0327 29.0575 22.8418 29.6996 22.46C30.3416 22.0783 30.8449 21.575 31.2093 20.9503C31.591 20.3083 31.7819 19.5795 31.7819 18.7639V7.75358H35.0616V18.9982C35.0616 20.369 34.7319 21.6011 34.0725 22.6943C33.4304 23.7702 32.5454 24.6205 31.4175 25.2452C30.2896 25.8525 28.9968 26.1562 27.5392 26.1562Z" fill="#2B6DE1"/>
<path d="M71.3991 32.9535C70.0976 32.9535 68.8916 32.7193 67.781 32.2507C66.6704 31.7822 65.6987 31.1315 64.8657 30.2986C64.0502 29.4483 63.4168 28.4505 62.9656 27.3052C62.5145 26.1599 62.2889 24.9105 62.2889 23.557C62.2889 22.2035 62.5145 20.9541 62.9656 19.8088C63.4168 18.6635 64.0502 17.6744 64.8657 16.8415C65.6987 15.9912 66.6704 15.3318 67.781 14.8633C68.8916 14.3948 70.0976 14.1605 71.3991 14.1605C72.7179 14.1605 73.9326 14.3948 75.0431 14.8633C76.1537 15.3318 77.1168 15.9912 77.9324 16.8415C78.7479 17.6918 79.3813 18.6896 79.8325 19.8348C80.2837 20.9628 80.5093 22.2035 80.5093 23.557C80.5093 24.8932 80.2837 26.1339 79.8325 27.2792C79.3813 28.4245 78.7479 29.4222 77.9324 30.2725C77.1168 31.1228 76.1537 31.7822 75.0431 32.2507C73.9326 32.7193 72.7179 32.9535 71.3991 32.9535ZM71.3991 29.7259C72.232 29.7259 72.9868 29.5784 73.6636 29.2834C74.3577 28.9711 74.9564 28.5373 75.4596 27.982C75.9628 27.4093 76.3533 26.7499 76.6309 26.0038C76.9259 25.2576 77.0734 24.442 77.0734 23.557C77.0734 22.672 76.9259 21.8564 76.6309 21.1103C76.3533 20.3641 75.9628 19.7134 75.4596 19.1581C74.9564 18.5855 74.3577 18.1516 73.6636 17.8566C72.9868 17.5443 72.232 17.3881 71.3991 17.3881C70.5835 17.3881 69.8286 17.5443 69.1345 17.8566C68.4404 18.1516 67.8417 18.5768 67.3385 19.1321C66.8353 19.6874 66.4448 20.3381 66.1672 21.0842C65.8896 21.8304 65.7507 22.6547 65.7507 23.557C65.7507 24.442 65.8896 25.2663 66.1672 26.0298C66.4448 26.7759 66.8353 27.4267 67.3385 27.982C67.8417 28.5373 68.4404 28.9711 69.1345 29.2834C69.8286 29.5784 70.5835 29.7259 71.3991 29.7259Z" fill="#3B8CF5"/>
<path d="M84.1785 32.6932V14.4728H92.0914C93.1846 14.4728 94.1824 14.7331 95.0847 15.2537C95.9871 15.757 96.6986 16.4511 97.2191 17.3361C97.7571 18.2037 98.026 19.1841 98.026 20.2773C98.026 21.3185 97.7571 22.2816 97.2191 23.1666C96.6986 24.0342 95.9871 24.7283 95.0847 25.2489C94.1998 25.7521 93.202 26.0038 92.0914 26.0038H87.4842V32.6932H84.1785ZM94.7464 32.6932L90.1132 24.468L93.6011 23.8173L98.7549 32.7193L94.7464 32.6932ZM87.4842 23.0625H92.1174C92.6207 23.0625 93.0545 22.9497 93.4189 22.7241C93.8006 22.4811 94.0956 22.1514 94.3039 21.735C94.5121 21.3185 94.6162 20.8587 94.6162 20.3554C94.6162 19.7828 94.4861 19.2882 94.2258 18.8718C93.9655 18.4553 93.6011 18.1256 93.1326 17.8827C92.664 17.6397 92.1261 17.5183 91.5188 17.5183H87.4842V23.0625ZM109.489 32.8494C108.049 32.8494 106.764 32.5457 105.637 31.9384C104.509 31.3137 103.615 30.4634 102.956 29.3875C102.313 28.2943 101.992 27.0623 101.992 25.6914V14.4468H105.402V25.4571C105.402 26.2727 105.584 27.0015 105.949 27.6436C106.331 28.2683 106.834 28.7715 107.459 29.1533C108.083 29.535 108.76 29.7259 109.489 29.7259C110.287 29.7259 111.007 29.535 111.649 29.1533C112.291 28.7715 112.795 28.2683 113.159 27.6436C113.541 27.0015 113.732 26.2727 113.732 25.4571V14.4468H117.011V25.6914C117.011 27.0623 116.682 28.2943 116.022 29.3875C115.38 30.4634 114.495 31.3137 113.367 31.9384C112.239 32.5457 110.946 32.8494 109.489 32.8494ZM121.697 32.6932V14.4728H124.899L131.536 25.2749L129.662 25.2489L136.378 14.4728H139.423V32.6932H136.065V25.8476C136.065 24.2858 136.1 22.8803 136.169 21.6309C136.256 20.3815 136.395 19.1407 136.586 17.9087L137.002 19.0279L131.354 27.7477H129.636L124.17 19.106L124.534 17.9087C124.725 19.0713 124.855 20.2687 124.925 21.5007C125.011 22.7154 125.055 24.1644 125.055 25.8476V32.6932H121.697Z" fill="white"/>
</svg>
